<svg width="360" height="205" viewBox="0 0 360 205" fill="none" xmlns="http://www.w3.org/2000/svg">
<rect width="360" height="205" fill="#ECEFF0"/>
<path d="M39.3311 43H36.5156V24.3364L30.8696 26.4102V23.8672L38.8921 20.855H39.3311V43Z" fill="#061D28"/>
<path d="M134.068 43H119.628V40.9868L127.257 32.5103C128.387 31.2287 129.164 30.1893 129.588 29.3921C130.022 28.5848 130.239 27.7523 130.239 26.8945C130.239 25.7441 129.891 24.8006 129.194 24.064C128.498 23.3273 127.57 22.959 126.409 22.959C125.017 22.959 123.932 23.3576 123.155 24.1548C122.388 24.9419 122.004 26.0418 122.004 27.4546H119.204C119.204 25.4263 119.855 23.7865 121.157 22.5352C122.469 21.2839 124.219 20.6582 126.409 20.6582C128.458 20.6582 130.077 21.1981 131.268 22.2778C132.459 23.3475 133.054 24.7754 133.054 26.5615C133.054 28.7311 131.672 31.3145 128.907 34.3115L123.003 40.7144H134.068V43Z" fill="#061D28"/>
<path d="M212.903 30.6182H215.007C216.329 30.598 217.369 30.2498 218.125 29.5737C218.882 28.8976 219.261 27.9844 219.261 26.834C219.261 24.2507 217.974 22.959 215.401 22.959C214.19 22.959 213.221 23.3071 212.495 24.0034C211.778 24.6896 211.42 25.6029 211.42 26.7432H208.62C208.62 24.9974 209.255 23.5493 210.527 22.3989C211.808 21.2384 213.433 20.6582 215.401 20.6582C217.48 20.6582 219.109 21.2082 220.29 22.3081C221.471 23.408 222.061 24.9368 222.061 26.8945C222.061 27.8532 221.748 28.7816 221.123 29.6797C220.507 30.5778 219.664 31.2489 218.595 31.6929C219.806 32.0763 220.739 32.7121 221.395 33.6001C222.061 34.4881 222.394 35.5729 222.394 36.8545C222.394 38.8324 221.748 40.4015 220.457 41.562C219.165 42.7225 217.485 43.3027 215.416 43.3027C213.347 43.3027 211.662 42.7427 210.36 41.6226C209.069 40.5024 208.423 39.0241 208.423 37.1875H211.238C211.238 38.348 211.617 39.2764 212.374 39.9727C213.13 40.6689 214.145 41.0171 215.416 41.0171C216.768 41.0171 217.803 40.6639 218.519 39.9575C219.236 39.2511 219.594 38.237 219.594 36.915C219.594 35.6335 219.2 34.6496 218.413 33.9634C217.626 33.2772 216.491 32.924 215.007 32.9038H212.903V30.6182Z" fill="#061D28"/>
<path d="M41.9497 85.5981H45.0073V87.8838H41.9497V93H39.1343V87.8838H29.0986V86.2339L38.9678 70.9609H41.9497V85.5981ZM32.2773 85.5981H39.1343V74.7905L38.8013 75.396L32.2773 85.5981Z" fill="#061D28"/>
<path d="M120.915 81.9502L122.035 70.9609H133.327V73.5493H124.411L123.745 79.5586C124.825 78.9229 126.051 78.605 127.423 78.605C129.431 78.605 131.026 79.271 132.207 80.603C133.387 81.925 133.978 83.7161 133.978 85.9766C133.978 88.2471 133.362 90.0382 132.131 91.3501C130.91 92.6519 129.199 93.3027 127 93.3027C125.052 93.3027 123.463 92.7629 122.231 91.6831C121 90.6034 120.299 89.1099 120.127 87.2026H122.776C122.948 88.464 123.397 89.4176 124.124 90.0635C124.85 90.6992 125.809 91.0171 127 91.0171C128.301 91.0171 129.32 90.5731 130.057 89.6851C130.804 88.797 131.177 87.571 131.177 86.0068C131.177 84.5335 130.774 83.3529 129.966 82.4648C129.169 81.5667 128.104 81.1177 126.772 81.1177C125.551 81.1177 124.593 81.3851 123.896 81.9199L123.155 82.5254L120.915 81.9502Z" fill="#061D28"/>
<path d="M219.821 70.9458V73.3223H219.306C217.126 73.3626 215.391 74.0085 214.099 75.2598C212.807 76.5111 212.061 78.272 211.859 80.5425C213.019 79.2104 214.604 78.5444 216.612 78.5444C218.529 78.5444 220.058 79.2205 221.198 80.5728C222.349 81.925 222.924 83.6707 222.924 85.8101C222.924 88.0806 222.303 89.897 221.062 91.2593C219.831 92.6216 218.176 93.3027 216.097 93.3027C213.988 93.3027 212.278 92.4954 210.966 90.8809C209.654 89.2562 208.998 87.1673 208.998 84.6143V83.5396C208.998 79.4829 209.861 76.3849 211.586 74.2456C213.322 72.0962 215.9 70.9963 219.321 70.9458H219.821ZM216.143 80.8755C215.184 80.8755 214.301 81.1631 213.494 81.7383C212.686 82.3135 212.126 83.035 211.813 83.9028V84.9321C211.813 86.7485 212.222 88.2118 213.04 89.3218C213.857 90.4318 214.876 90.9868 216.097 90.9868C217.359 90.9868 218.347 90.5226 219.064 89.5942C219.791 88.6659 220.154 87.4499 220.154 85.9463C220.154 84.4326 219.785 83.2116 219.049 82.2832C218.322 81.3447 217.354 80.8755 216.143 80.8755Z" fill="#061D28"/>
<path d="M44.3564 122.535L35.229 143H32.2925L41.3896 123.262H29.4619V120.961H44.3564V122.535Z" fill="#061D28"/>
<path d="M132.994 126.713C132.994 127.813 132.701 128.792 132.116 129.649C131.541 130.507 130.758 131.178 129.77 131.663C130.92 132.157 131.828 132.879 132.494 133.827C133.17 134.776 133.508 135.85 133.508 137.051C133.508 138.958 132.862 140.477 131.571 141.607C130.289 142.738 128.599 143.303 126.5 143.303C124.381 143.303 122.681 142.738 121.399 141.607C120.127 140.467 119.492 138.948 119.492 137.051C119.492 135.861 119.815 134.786 120.46 133.827C121.116 132.868 122.02 132.142 123.17 131.647C122.191 131.163 121.419 130.492 120.854 129.634C120.289 128.777 120.006 127.803 120.006 126.713C120.006 124.856 120.602 123.383 121.792 122.293C122.983 121.203 124.552 120.658 126.5 120.658C128.438 120.658 130.002 121.203 131.192 122.293C132.393 123.383 132.994 124.856 132.994 126.713ZM130.708 136.991C130.708 135.76 130.314 134.756 129.527 133.979C128.75 133.201 127.731 132.813 126.47 132.813C125.208 132.813 124.194 133.196 123.427 133.963C122.67 134.73 122.292 135.739 122.292 136.991C122.292 138.242 122.66 139.226 123.397 139.942C124.144 140.659 125.178 141.017 126.5 141.017C127.812 141.017 128.841 140.659 129.588 139.942C130.335 139.216 130.708 138.232 130.708 136.991ZM126.5 122.959C125.4 122.959 124.507 123.302 123.821 123.988C123.145 124.664 122.807 125.588 122.807 126.758C122.807 127.878 123.14 128.787 123.806 129.483C124.482 130.169 125.38 130.512 126.5 130.512C127.62 130.512 128.513 130.169 129.179 129.483C129.855 128.787 130.193 127.878 130.193 126.758C130.193 125.638 129.845 124.725 129.149 124.019C128.453 123.312 127.57 122.959 126.5 122.959Z" fill="#061D28"/>
<path d="M133.448 182.6C133.448 185.88 132.888 188.317 131.768 189.911C130.647 191.506 128.897 192.303 126.515 192.303C124.164 192.303 122.423 191.526 121.293 189.972C120.163 188.408 119.577 186.076 119.537 182.979V179.24C119.537 176 120.097 173.594 121.217 172.02C122.337 170.445 124.093 169.658 126.485 169.658C128.856 169.658 130.602 170.42 131.722 171.944C132.842 173.458 133.417 175.799 133.448 178.967V182.6ZM130.647 178.771C130.647 176.399 130.314 174.674 129.648 173.594C128.982 172.504 127.928 171.959 126.485 171.959C125.052 171.959 124.007 172.499 123.352 173.579C122.696 174.658 122.358 176.318 122.337 178.559V183.039C122.337 185.421 122.681 187.181 123.367 188.322C124.063 189.452 125.112 190.017 126.515 190.017C127.898 190.017 128.922 189.482 129.588 188.413C130.264 187.343 130.617 185.658 130.647 183.357V178.771Z" fill="#061D28"/>
<path opacity="0.8" d="M36.7734 178.4L33.8242 177.521L34.2734 176.047L37.2227 177.141L37.1348 173.781H38.6289L38.5312 177.189L41.4316 176.115L41.8809 177.6L38.8828 178.488L40.8164 181.135L39.6055 182.053L37.7891 179.24L36.0312 181.984L34.8105 181.096L36.7734 178.4ZM54.5957 183.996H52.0176L51.2363 188H49.8398L50.6211 183.996H48.2871V182.658H50.875L51.5488 179.201H49.0293V177.844H51.8125L52.6133 173.781H54.0098L53.209 177.844H55.7871L56.5879 173.781H57.9941L57.1934 177.844H59.1855V179.201H56.9297L56.2559 182.658H58.4531V183.996H56.002L55.2207 188H53.8145L54.5957 183.996ZM52.2715 182.658H54.8496L55.5234 179.201H52.9453L52.2715 182.658Z" fill="#061D28"/>
<path opacity="0.8" d="M222.593 190.532C222.593 190.047 222.734 189.644 223.017 189.321C223.309 188.998 223.743 188.836 224.318 188.836C224.894 188.836 225.327 188.998 225.62 189.321C225.923 189.644 226.074 190.047 226.074 190.532C226.074 190.996 225.923 191.384 225.62 191.697C225.327 192.01 224.894 192.167 224.318 192.167C223.743 192.167 223.309 192.01 223.017 191.697C222.734 191.384 222.593 190.996 222.593 190.532Z" fill="#061D28"/>
<path d="M219.563 133.312C218.978 134.009 218.277 134.569 217.459 134.993C216.652 135.417 215.764 135.628 214.795 135.628C213.524 135.628 212.414 135.316 211.465 134.69C210.527 134.064 209.8 133.186 209.286 132.056C208.771 130.916 208.514 129.66 208.514 128.287C208.514 126.814 208.791 125.487 209.346 124.306C209.911 123.125 210.708 122.222 211.738 121.597C212.767 120.971 213.968 120.658 215.34 120.658C217.52 120.658 219.236 121.476 220.487 123.11C221.748 124.735 222.379 126.955 222.379 129.771V130.588C222.379 134.877 221.531 138.01 219.836 139.988C218.141 141.956 215.583 142.965 212.162 143.015H211.617V140.654H212.207C214.518 140.613 216.294 140.013 217.535 138.853C218.776 137.682 219.452 135.835 219.563 133.312ZM215.25 133.312C216.188 133.312 217.051 133.025 217.838 132.45C218.635 131.875 219.215 131.163 219.579 130.315V129.195C219.579 127.359 219.18 125.865 218.383 124.715C217.586 123.564 216.576 122.989 215.355 122.989C214.124 122.989 213.135 123.464 212.389 124.412C211.642 125.351 211.269 126.592 211.269 128.136C211.269 129.639 211.627 130.881 212.343 131.859C213.07 132.828 214.039 133.312 215.25 133.312Z" fill="#061D28"/>
<g clip-path="url(#clip0_343_71)">
<path fill-rule="evenodd" clip-rule="evenodd" d="M319.5 33H307.5V31H319.5V33Z" fill="#4A5B64"/>
</g>
<g clip-path="url(#clip1_343_71)">
<path fill-rule="evenodd" clip-rule="evenodd" d="M303.5 78C304.052 78 304.5 78.4477 304.5 79V82H322.5V79C322.5 78.4477 322.948 78 323.5 78C324.052 78 324.5 78.4477 324.5 79V83C324.5 83.5523 324.052 84 323.5 84H303.5C302.948 84 302.5 83.5523 302.5 83V79C302.5 78.4477 302.948 78 303.5 78Z" fill="#4A5B64"/>
</g>
<path fill-rule="evenodd" clip-rule="evenodd" d="M310.707 127.293C311.098 126.902 311.731 126.902 312.121 127.293L318.707 133.879C319.098 134.269 319.098 134.902 318.707 135.293C318.317 135.683 317.683 135.683 317.293 135.293L310.707 128.707C310.317 128.316 310.317 127.683 310.707 127.293Z" fill="#4A5B64"/>
<path fill-rule="evenodd" clip-rule="evenodd" d="M318.293 127.293C317.902 126.902 317.269 126.902 316.879 127.293L310.293 133.879C309.902 134.269 309.902 134.902 310.293 135.293C310.683 135.683 311.317 135.683 311.707 135.293L318.293 128.707C318.683 128.316 318.683 127.683 318.293 127.293Z" fill="#4A5B64"/>
<path fill-rule="evenodd" clip-rule="evenodd" d="M307.585 123L302.385 131L307.585 139H322C322.552 139 323 138.552 323 138V124C323 123.448 322.552 123 322 123H307.585ZM306.5 141L300 131L306.5 121H322C323.657 121 325 122.343 325 124V138C325 139.657 323.657 141 322 141H306.5Z" fill="#4A5B64"/>
<circle cx="313" cy="175" r="17" fill="url(#paint0_linear_343_71)"/>
<path d="M319.984 169.984H322V175.984H306.812L310.422 179.594L309.016 181L303.016 175L309.016 169L310.422 170.406L306.812 174.016H319.984V169.984Z" fill="#F5F5F5"/>
<path d="M151.242 33.8481H147.661L146.912 36H145.243L148.734 26.7578H150.175L153.673 36H151.997L151.242 33.8481ZM148.112 32.5532H150.791L149.451 28.7192L148.112 32.5532ZM154.856 36V26.7578H158.024C159.069 26.7578 159.865 26.9673 160.411 27.3862C160.956 27.8052 161.229 28.4294 161.229 29.2588C161.229 29.682 161.115 30.0628 160.887 30.4014C160.658 30.7399 160.324 31.0023 159.884 31.1885C160.383 31.3239 160.768 31.5799 161.039 31.9565C161.314 32.3289 161.452 32.7775 161.452 33.3022C161.452 34.1698 161.172 34.8363 160.614 35.3018C160.059 35.7673 159.264 36 158.227 36H154.856ZM156.462 31.8296V34.7178H158.246C158.75 34.7178 159.143 34.5929 159.427 34.3433C159.71 34.0936 159.852 33.7466 159.852 33.3022C159.852 32.3416 159.361 31.8507 158.379 31.8296H156.462ZM156.462 30.6489H158.037C158.536 30.6489 158.925 30.5368 159.205 30.3125C159.488 30.084 159.63 29.7624 159.63 29.3477C159.63 28.8906 159.499 28.5605 159.236 28.3574C158.978 28.1543 158.574 28.0527 158.024 28.0527H156.462V30.6489ZM170.24 32.9912C170.147 33.9772 169.783 34.7474 169.148 35.3018C168.513 35.8519 167.669 36.127 166.615 36.127C165.879 36.127 165.229 35.9535 164.667 35.6064C164.108 35.2552 163.676 34.758 163.372 34.1147C163.067 33.4715 162.908 32.7246 162.896 31.874V31.0107C162.896 30.139 163.05 29.3709 163.359 28.7065C163.668 28.0422 164.11 27.5301 164.686 27.1704C165.265 26.8107 165.934 26.6309 166.691 26.6309C167.711 26.6309 168.532 26.908 169.154 27.4624C169.776 28.0168 170.138 28.7996 170.24 29.811H168.64C168.564 29.1466 168.369 28.6685 168.056 28.3765C167.747 28.0802 167.292 27.9321 166.691 27.9321C165.993 27.9321 165.456 28.1882 165.079 28.7002C164.707 29.208 164.516 29.9549 164.508 30.9409V31.7598C164.508 32.7585 164.686 33.5202 165.041 34.0449C165.401 34.5697 165.926 34.832 166.615 34.832C167.246 34.832 167.72 34.6903 168.037 34.4067C168.355 34.1232 168.556 33.6514 168.64 32.9912H170.24Z" fill="#061D28"/>
<path d="M236.249 36V26.7578H238.978C239.795 26.7578 240.519 26.9398 241.149 27.3037C241.784 27.6676 242.275 28.1839 242.622 28.8525C242.969 29.5212 243.142 30.2871 243.142 31.1504V31.6138C243.142 32.4897 242.967 33.2599 242.616 33.9243C242.269 34.5887 241.771 35.1007 241.124 35.4604C240.481 35.8201 239.742 36 238.909 36H236.249ZM237.855 28.0527V34.7178H238.902C239.744 34.7178 240.39 34.4554 240.838 33.9307C241.291 33.4017 241.522 32.6442 241.53 31.6582V31.144C241.53 30.1411 241.312 29.3752 240.876 28.8462C240.44 28.3172 239.808 28.0527 238.978 28.0527H237.855ZM250.274 31.874H246.478V34.7178H250.915V36H244.872V26.7578H250.871V28.0527H246.478V30.6045H250.274V31.874ZM257.678 32.0835H253.959V36H252.353V26.7578H258.224V28.0527H253.959V30.8013H257.678V32.0835Z" fill="#061D28"/>
<path d="M151.799 76.7578H153.398V83.2388C153.398 84.1232 153.121 84.8257 152.567 85.3462C152.017 85.8667 151.289 86.127 150.383 86.127C149.418 86.127 148.673 85.8836 148.149 85.397C147.624 84.9103 147.362 84.2332 147.362 83.3657H148.961C148.961 83.8566 149.082 84.2269 149.323 84.4766C149.569 84.722 149.922 84.8447 150.383 84.8447C150.815 84.8447 151.158 84.703 151.411 84.4194C151.67 84.1317 151.799 83.736 151.799 83.2324V76.7578ZM158.022 82.0073L156.975 83.1182V86H155.369V76.7578H156.975V81.0933L157.864 79.9951L160.568 76.7578H162.51L159.076 80.8521L162.707 86H160.803L158.022 82.0073ZM165.306 84.7178H169.502V86H163.7V76.7578H165.306V84.7178Z" fill="#061D28"/>
<path d="M235.03 76.7578L237.696 83.8418L240.356 76.7578H242.431V86H240.832V82.9531L240.991 78.8779L238.261 86H237.112L234.389 78.8843L234.548 82.9531V86H232.948V76.7578H235.03ZM251.797 86H250.191L246.072 79.4429V86H244.466V76.7578H246.072L250.204 83.3403V76.7578H251.797V86ZM261.201 81.6201C261.201 82.5257 261.045 83.3213 260.732 84.0068C260.418 84.6882 259.97 85.2129 259.386 85.5811C258.806 85.945 258.137 86.127 257.38 86.127C256.631 86.127 255.962 85.945 255.374 85.5811C254.79 85.2129 254.337 84.6903 254.016 84.0132C253.698 83.3361 253.537 82.5553 253.533 81.6709V81.1504C253.533 80.249 253.692 79.4535 254.009 78.7637C254.331 78.0739 254.782 77.547 255.361 77.1831C255.945 76.8149 256.614 76.6309 257.367 76.6309C258.121 76.6309 258.787 76.8128 259.367 77.1768C259.951 77.5365 260.401 78.057 260.719 78.7383C261.036 79.4154 261.197 80.2046 261.201 81.106V81.6201ZM259.595 81.1377C259.595 80.1136 259.401 79.3286 259.011 78.7827C258.626 78.2368 258.078 77.9639 257.367 77.9639C256.673 77.9639 256.129 78.2368 255.736 78.7827C255.347 79.3244 255.148 80.0924 255.139 81.0869V81.6201C255.139 82.6357 255.336 83.4207 255.73 83.9751C256.127 84.5295 256.677 84.8066 257.38 84.8066C258.091 84.8066 258.637 84.5358 259.018 83.9941C259.403 83.4525 259.595 82.6611 259.595 81.6201V81.1377Z" fill="#061D28"/>
<path d="M153.025 127.053H150.143V135H148.55V127.053H145.694V125.758H153.025V127.053ZM161.134 125.758V131.934C161.134 132.916 160.819 133.694 160.188 134.27C159.562 134.841 158.726 135.127 157.681 135.127C156.623 135.127 155.783 134.846 155.161 134.283C154.539 133.716 154.228 132.931 154.228 131.928V125.758H155.828V131.94C155.828 132.558 155.984 133.03 156.297 133.356C156.61 133.682 157.072 133.845 157.681 133.845C158.917 133.845 159.535 133.193 159.535 131.89V125.758H161.134ZM166.241 132.988L168.589 125.758H170.354L167.028 135H165.473L162.159 125.758H163.918L166.241 132.988Z" fill="#061D28"/>
<path d="M158.421 179.96H161.761V181.911H158.421V185.717H156.347V181.911H152.989V179.96H156.347V176.4H158.421V179.96Z" fill="#061D28"/>
<path d="M237.219 132.715L238.64 125.758H240.234L238.101 135H236.565L234.806 128.252L233.01 135H231.468L229.335 125.758H230.928L232.363 132.702L234.127 125.758H235.473L237.219 132.715ZM244.718 129.097L246.661 125.758H248.514L245.721 130.341L248.578 135H246.705L244.718 131.61L242.725 135H240.859L243.722 130.341L240.922 125.758H242.776L244.718 129.097ZM252.91 130.138L255.036 125.758H256.813L253.716 131.598V135H252.104V131.598L249 125.758H250.783L252.91 130.138ZM259.457 133.718H264.396V135H257.515V133.959L262.295 127.053H257.547V125.758H264.243V126.773L259.457 133.718Z" fill="#061D28"/>
<path d="M65.4486 84.8003C65.1142 85.2362 64.6509 85.5662 64.0584 85.7905C63.466 86.0148 62.7931 86.127 62.0399 86.127C61.2654 86.127 60.5799 85.9513 59.9832 85.6001C59.3865 85.2489 58.9253 84.7474 58.5994 84.0957C58.2778 83.4398 58.1107 82.6759 58.098 81.8042V81.0806C58.098 79.6841 58.4323 78.5944 59.1009 77.8115C59.7695 77.0244 60.7026 76.6309 61.9002 76.6309C62.9285 76.6309 63.7453 76.8848 64.3504 77.3926C64.9556 77.9004 65.3195 78.6325 65.4422 79.5889H63.868C63.6903 78.4759 63.0449 77.9194 61.932 77.9194C61.2126 77.9194 60.6645 78.1797 60.2879 78.7002C59.9155 79.2165 59.723 79.9761 59.7103 80.979V81.6899C59.7103 82.6886 59.9197 83.4652 60.3387 84.0195C60.7619 84.5697 61.348 84.8447 62.097 84.8447C62.918 84.8447 63.5019 84.6585 63.8489 84.2861V82.4771H61.9446V81.2583H65.4486V84.8003ZM74.6811 86H73.0815V81.8931H68.9492V86H67.3432V76.7578H68.9492V80.6045H73.0815V76.7578H74.6811V86ZM78.4102 86H76.8106V76.7578H78.4102V86Z" fill="#061D28"/>
<path d="M54.6609 131.566V135H53.0549V125.758H56.5906C57.6231 125.758 58.442 126.027 59.0471 126.564C59.6565 127.101 59.9612 127.812 59.9612 128.697C59.9612 129.602 59.6629 130.307 59.0662 130.811C58.4737 131.314 57.6422 131.566 56.5715 131.566H54.6609ZM54.6609 130.277H56.5906C57.1619 130.277 57.5977 130.144 57.8982 129.877C58.1987 129.607 58.3489 129.217 58.3489 128.709C58.3489 128.21 58.1965 127.812 57.8919 127.516C57.5872 127.216 57.1682 127.061 56.635 127.053H54.6609V130.277ZM64.8964 131.439H63.1063V135H61.5004V125.758H64.7504C65.8168 125.758 66.6399 125.997 67.2196 126.475C67.7994 126.953 68.0892 127.645 68.0892 128.551C68.0892 129.169 67.939 129.687 67.6386 130.106C67.3423 130.521 66.9276 130.84 66.3944 131.064L68.4701 134.917V135H66.7499L64.8964 131.439ZM63.1063 130.15H64.7567C65.2984 130.15 65.7216 130.015 66.0262 129.744C66.3309 129.469 66.4833 129.095 66.4833 128.621C66.4833 128.125 66.3415 127.743 66.058 127.472C65.7787 127.201 65.3597 127.061 64.8012 127.053H63.1063V130.15ZM77.0869 130.62C77.0869 131.496 76.9473 132.256 76.668 132.899C76.3929 133.538 76.0057 134.046 75.5063 134.422L77.0933 135.66L76.0522 136.6L74.0845 135.044C73.8263 135.099 73.5492 135.127 73.2529 135.127C72.5081 135.127 71.8416 134.945 71.2534 134.581C70.6694 134.213 70.2166 133.69 69.895 133.013C69.5776 132.336 69.4168 131.555 69.4126 130.671V130.15C69.4126 129.249 69.5713 128.453 69.8887 127.764C70.2103 127.074 70.661 126.547 71.2407 126.183C71.8247 125.815 72.4912 125.631 73.2402 125.631C74.002 125.631 74.6727 125.813 75.2524 126.177C75.8364 126.536 76.2871 127.057 76.6045 127.738C76.9219 128.415 77.0827 129.205 77.0869 130.106V130.62ZM75.4746 130.138C75.4746 129.097 75.2799 128.307 74.8906 127.77C74.5013 127.233 73.9512 126.964 73.2402 126.964C72.5505 126.964 72.0088 127.237 71.6152 127.783C71.2259 128.324 71.027 129.09 71.0186 130.081V130.62C71.0186 131.619 71.2132 132.4 71.6025 132.962C71.9961 133.525 72.5462 133.807 73.2529 133.807C73.9681 133.807 74.5161 133.536 74.897 132.994C75.2821 132.452 75.4746 131.661 75.4746 130.62V130.138ZM83.6788 132.62C83.6788 132.213 83.5349 131.9 83.2472 131.68C82.9637 131.46 82.4495 131.238 81.7047 131.014C80.9599 130.789 80.3675 130.54 79.9274 130.265C79.0852 129.736 78.6642 129.046 78.6642 128.195C78.6642 127.451 78.9668 126.837 79.5719 126.354C80.1813 125.872 80.9705 125.631 81.9396 125.631C82.5828 125.631 83.1562 125.749 83.6598 125.986C84.1634 126.223 84.559 126.562 84.8468 127.002C85.1346 127.438 85.2784 127.922 85.2784 128.456H83.6788C83.6788 127.973 83.5265 127.597 83.2218 127.326C82.9213 127.051 82.4897 126.913 81.9269 126.913C81.4021 126.913 80.9938 127.025 80.7018 127.25C80.414 127.474 80.2701 127.787 80.2701 128.189C80.2701 128.528 80.4267 128.811 80.7399 129.04C81.053 129.264 81.5693 129.484 82.2887 129.7C83.0081 129.911 83.5857 130.155 84.0216 130.43C84.4575 130.701 84.777 131.014 84.9801 131.369C85.1832 131.72 85.2848 132.133 85.2848 132.607C85.2848 133.377 84.9886 133.991 84.3961 134.448C83.8079 134.901 83.0081 135.127 81.9967 135.127C81.3281 135.127 80.7124 135.004 80.1495 134.759C79.5909 134.509 79.1551 134.166 78.8419 133.73C78.533 133.295 78.3785 132.787 78.3785 132.207H79.9845C79.9845 132.732 80.158 133.138 80.505 133.426C80.852 133.714 81.3492 133.857 81.9967 133.857C82.5553 133.857 82.9742 133.745 83.2535 133.521C83.5371 133.292 83.6788 132.992 83.6788 132.62Z" fill="#061D28"/>
<defs>
<linearGradient id="paint0_linear_343_71" x1="296" y1="175" x2="330" y2="175" gradientUnits="userSpaceOnUse">
<stop stop-color="#71C343"/>
<stop offset="1" stop-color="#60BA2C"/>
</linearGradient>
<clipPath id="clip0_343_71">
<rect width="12" height="2" fill="white" transform="translate(307.5 31)"/>
</clipPath>
<clipPath id="clip1_343_71">
<rect width="22" height="6" fill="white" transform="translate(302.5 78)"/>
</clipPath>
</defs>
</svg>
