<svg width="68" height="14" viewBox="0 0 68 14" fill="none" xmlns="http://www.w3.org/2000/svg">
<path fill-rule="evenodd" clip-rule="evenodd" d="M46.5894 1.15991H61.4106C62.6587 1.15991 63.1113 1.28987 63.5676 1.5339C64.0239 1.77793 64.382 2.13603 64.626 2.59233C64.87 3.04862 65 3.50122 65 4.74935V9.07047C65 10.3186 64.87 10.7712 64.626 11.2275C64.382 11.6838 64.0239 12.0419 63.5676 12.2859C63.1113 12.53 62.6587 12.6599 61.4106 12.6599H46.5894C45.3413 12.6599 44.8887 12.53 44.4324 12.2859C43.9761 12.0419 43.618 11.6838 43.374 11.2275C43.13 10.7712 43 10.3186 43 9.07047V4.74935C43 3.50122 43.13 3.04862 43.374 2.59233C43.618 2.13603 43.9761 1.77793 44.4324 1.5339C44.8887 1.28987 45.3413 1.15991 46.5894 1.15991ZM46.5894 2.15991C45.6025 2.15991 45.2579 2.22645 44.904 2.41571C44.622 2.56654 44.4066 2.7819 44.2558 3.06393C44.0665 3.41782 44 3.76237 44 4.74935V9.07047C44 10.0575 44.0665 10.402 44.2558 10.7559C44.4066 11.0379 44.622 11.2533 44.904 11.4041C45.2579 11.5934 45.6025 11.6599 46.5894 11.6599H61.4106C62.3975 11.6599 62.7421 11.5934 63.096 11.4041C63.378 11.2533 63.5934 11.0379 63.7442 10.7559C63.9335 10.402 64 10.0575 64 9.07047V4.74935C64 3.76237 63.9335 3.41782 63.7442 3.06393C63.5934 2.7819 63.378 2.56654 63.096 2.41571C62.7421 2.22645 62.3975 2.15991 61.4106 2.15991H46.5894ZM67.5 6.84991C67.5 8.08649 66 8.84991 66 8.84991V4.84991C66 4.84991 67.5 5.61334 67.5 6.84991Z" fill="#1F0927" fill-opacity="0.5"/>
<rect x="45" y="3.07666" width="18" height="7.66667" rx="1.6" fill="#1F0927"/>
<path fill-rule="evenodd" clip-rule="evenodd" d="M14.623 2.56599C14.6 2.68191 14.6 2.8213 14.6 3.1001V10.8001C14.6 11.0789 14.6 11.2183 14.623 11.3342C14.7177 11.8102 15.0899 12.1824 15.5659 12.277C15.6818 12.3001 15.8212 12.3001 16.1 12.3001C16.3788 12.3001 16.5182 12.3001 16.6341 12.277C17.1101 12.1824 17.4822 11.8102 17.5769 11.3342C17.6 11.2183 17.6 11.0789 17.6 10.8001V3.1001C17.6 2.8213 17.6 2.68191 17.5769 2.56599C17.4822 2.08996 17.1101 1.71784 16.6341 1.62316C16.5182 1.6001 16.3788 1.6001 16.1 1.6001C15.8212 1.6001 15.6818 1.6001 15.5659 1.62316C15.0899 1.71784 14.7177 2.08996 14.623 2.56599ZM9.89999 5.5001C9.89999 5.22131 9.89999 5.08191 9.92305 4.96599C10.0177 4.48996 10.3899 4.11784 10.8659 4.02316C10.9818 4.0001 11.1212 4.0001 11.4 4.0001C11.6788 4.0001 11.8182 4.0001 11.9341 4.02316C12.4101 4.11784 12.7822 4.48996 12.8769 4.96599C12.9 5.08191 12.9 5.22131 12.9 5.5001V10.8001C12.9 11.0789 12.9 11.2183 12.8769 11.3342C12.7822 11.8102 12.4101 12.1824 11.9341 12.277C11.8182 12.3001 11.6788 12.3001 11.4 12.3001C11.1212 12.3001 10.9818 12.3001 10.8659 12.277C10.3899 12.1824 10.0177 11.8102 9.92305 11.3342C9.89999 11.2183 9.89999 11.0789 9.89999 10.8001V5.5001ZM5.32305 7.26599C5.29999 7.38191 5.29999 7.52131 5.29999 7.8001V10.8001C5.29999 11.0789 5.29999 11.2183 5.32305 11.3342C5.41773 11.8102 5.78985 12.1824 6.26588 12.277C6.3818 12.3001 6.52119 12.3001 6.79999 12.3001C7.07878 12.3001 7.21818 12.3001 7.3341 12.277C7.81012 12.1824 8.18224 11.8102 8.27693 11.3342C8.29999 11.2183 8.29999 11.0789 8.29999 10.8001V7.8001C8.29999 7.52131 8.29999 7.38191 8.27693 7.26599C8.18224 6.78997 7.81012 6.41785 7.3341 6.32316C7.21818 6.3001 7.07878 6.3001 6.79999 6.3001C6.52119 6.3001 6.3818 6.3001 6.26588 6.32316C5.78985 6.41785 5.41773 6.78997 5.32305 7.26599ZM0.523058 9.26599C0.5 9.38191 0.5 9.52131 0.5 9.8001V10.8001C0.5 11.0789 0.5 11.2183 0.523058 11.3342C0.617746 11.8102 0.989863 12.1824 1.46589 12.277C1.58181 12.3001 1.72121 12.3001 2 12.3001C2.27879 12.3001 2.41819 12.3001 2.53411 12.277C3.01014 12.1824 3.38225 11.8102 3.47694 11.3342C3.5 11.2183 3.5 11.0789 3.5 10.8001V9.8001C3.5 9.52131 3.5 9.38191 3.47694 9.26599C3.38225 8.78997 3.01014 8.41785 2.53411 8.32316C2.41819 8.3001 2.27879 8.3001 2 8.3001C1.72121 8.3001 1.58181 8.3001 1.46589 8.32316C0.989863 8.41785 0.617746 8.78997 0.523058 9.26599Z" fill="#1F0927"/>
<path fill-rule="evenodd" clip-rule="evenodd" d="M30.3005 3.69626C32.5349 3.69636 34.6839 4.55491 36.3033 6.09447C36.4252 6.21333 36.6201 6.21183 36.7402 6.09111L37.9059 4.91469C37.9667 4.85346 38.0006 4.77053 38.0001 4.68423C37.9996 4.59793 37.9647 4.5154 37.9032 4.45488C33.6529 0.381575 26.9475 0.381575 22.6972 4.45488C22.6356 4.51535 22.6007 4.59786 22.6001 4.68416C22.5995 4.77046 22.6334 4.85342 22.6941 4.91469L23.8601 6.09111C23.9802 6.21201 24.1752 6.21351 24.2971 6.09447C25.9167 4.55481 28.0659 3.69626 30.3005 3.69626ZM30.3005 7.52365C31.5282 7.52357 32.712 7.97989 33.622 8.80393C33.7451 8.92088 33.939 8.91834 34.059 8.79821L35.2233 7.6218C35.2846 7.56009 35.3187 7.47638 35.3178 7.38939C35.3169 7.30241 35.2812 7.21941 35.2186 7.15896C32.4474 4.58121 28.1559 4.58121 25.3848 7.15896C25.3222 7.21941 25.2865 7.30245 25.2857 7.38946C25.2848 7.47648 25.319 7.56018 25.3804 7.6218L26.5444 8.79821C26.6644 8.91834 26.8583 8.92088 26.9813 8.80393C27.8908 7.98043 29.0737 7.52416 30.3005 7.52365ZM32.5381 10.3313C32.6003 10.2701 32.6346 10.186 32.6328 10.0988C32.6311 10.0116 32.5934 9.92895 32.5286 9.87043C31.2424 8.78253 29.3586 8.78253 28.0724 9.87043C28.0076 9.9289 27.9699 10.0115 27.968 10.0987C27.9662 10.186 28.0004 10.2701 28.0626 10.3313L30.077 12.3638C30.136 12.4235 30.2165 12.4571 30.3005 12.4571C30.3845 12.4571 30.465 12.4235 30.524 12.3638L32.5381 10.3313Z" fill="#1F0927"/>
</svg>
